<?xml version="1.0" encoding="utf-8"?>
<!-- Generator: Adobe Illustrator 22.1.0, SVG Export Plug-In . SVG Version: 6.00 Build 0)  -->
<svg version="1.1" id="Layer_1" xmlns="http://www.w3.org/2000/svg" xmlns:xlink="http://www.w3.org/1999/xlink" x="0px" y="0px"
	 viewBox="0 0 53 40" style="enable-background:new 0 0 53 40;" xml:space="preserve">
<style type="text/css">
	.st0{fill:#FFFFFF;}
</style>
<path class="st0" d="M12.3,5C12.1,5.5,12,6,12,6.5s0.1,1,0.3,1.5H2C1.2,8,0.5,7.3,0.5,6.5S1.2,5,2,5H12.3z"/>
<path class="st0" d="M52.5,6.5C52.5,7.3,51.8,8,51,8H18.7C18.9,7.5,19,7,19,6.5s-0.1-1-0.3-1.5H51C51.8,5,52.5,5.7,52.5,6.5z"/>
<path class="st0" d="M21.8,5c-0.7-2.9-3.3-5-6.3-5S9.9,2.1,9.2,5C9.1,5.5,9,6,9,6.5s0.1,1,0.2,1.5c0.7,2.9,3.3,5,6.3,5
	s5.6-2.1,6.3-5C21.9,7.5,22,7,22,6.5S21.9,5.5,21.8,5z M15.5,10c-1.4,0-2.6-0.8-3.2-2C12.1,7.5,12,7,12,6.5s0.1-1,0.3-1.5
	c0.6-1.2,1.8-2,3.2-2s2.6,0.8,3.2,2C18.9,5.5,19,6,19,6.5s-0.1,1-0.3,1.5C18.1,9.2,16.9,10,15.5,10z"/>
<path class="st0" d="M37.3,18.5C37.1,19,37,19.5,37,20s0.1,1,0.3,1.5H2c-0.8,0-1.5-0.7-1.5-1.5s0.7-1.5,1.5-1.5H37.3z"/>
<path class="st0" d="M52.5,20c0,0.8-0.7,1.5-1.5,1.5h-7.3c0.2-0.5,0.3-1,0.3-1.5s-0.1-1-0.3-1.5H51C51.8,18.5,52.5,19.2,52.5,20z"/>
<path class="st0" d="M46.8,18.5c-0.7-2.9-3.3-5-6.3-5s-5.6,2.1-6.3,5C34.1,19,34,19.5,34,20s0.1,1,0.2,1.5c0.7,2.9,3.3,5,6.3,5
	s5.6-2.1,6.3-5c0.1-0.5,0.2-1,0.2-1.5S46.9,19,46.8,18.5z M40.5,23.5c-1.4,0-2.6-0.8-3.2-2C37.1,21,37,20.5,37,20s0.1-1,0.3-1.5
	c0.6-1.2,1.8-2,3.2-2s2.6,0.8,3.2,2c0.2,0.5,0.3,1,0.3,1.5s-0.1,1-0.3,1.5C43.1,22.7,41.9,23.5,40.5,23.5z"/>
<path class="st0" d="M19.3,32c-0.2,0.5-0.3,1-0.3,1.5s0.1,1,0.3,1.5H2c-0.8,0-1.5-0.7-1.5-1.5S1.2,32,2,32H19.3z"/>
<path class="st0" d="M52.5,33.5c0,0.8-0.7,1.5-1.5,1.5H25.7c0.2-0.5,0.3-1,0.3-1.5s-0.1-1-0.3-1.5H51C51.8,32,52.5,32.7,52.5,33.5z"
	/>
<path class="st0" d="M28.8,32c-0.7-2.9-3.3-5-6.3-5s-5.6,2.1-6.3,5c-0.1,0.5-0.2,1-0.2,1.5s0.1,1,0.2,1.5c0.7,2.9,3.3,5,6.3,5
	s5.6-2.1,6.3-5c0.1-0.5,0.2-1,0.2-1.5S28.9,32.5,28.8,32z M22.5,37c-1.4,0-2.6-0.8-3.2-2c-0.2-0.5-0.3-1-0.3-1.5s0.1-1,0.3-1.5
	c0.6-1.2,1.8-2,3.2-2s2.6,0.8,3.2,2c0.2,0.5,0.3,1,0.3,1.5s-0.1,1-0.3,1.5C25.1,36.2,23.9,37,22.5,37z"/>
</svg>
